<svg width="169" height="21" viewBox="0 0 169 21" fill="none" xmlns="http://www.w3.org/2000/svg">
<g clip-path="url(#clip0_1_460)">
<path d="M168.784 10.0925H160.876V17.5706L162.789 20.4771H168.784V18.1369H163.928V16.2355H166.981V13.8953H163.928V12.4327H166.148V11.7014H168.784V10.0925Z" fill="#0C0C0C"/>
<path d="M151.207 15.27H154.851V15.8015C154.821 16.4761 154.748 16.9881 154.634 17.3374C154.462 17.8614 154.387 18.0607 154.179 18.4217C153.97 18.7827 153.535 19.325 153.208 19.5729C152.881 19.8208 152.704 19.9431 152.17 20.1833C151.799 20.3462 151.383 20.4415 150.92 20.4693L150.366 20.477V17.74L150.654 17.6604C150.886 17.5852 151.087 17.4843 151.259 17.3577C151.453 17.2081 151.504 17.1416 151.624 17.0067C151.73 16.8851 151.81 16.7493 151.864 16.5992L151.92 16.3787H151.207V15.27Z" fill="#0C0C0C"/>
<path d="M147.668 15.3206H145.06V14.8554C145.057 14.4726 145.083 14.1249 145.139 13.812C145.222 13.3428 145.342 13.0096 145.497 12.6967C145.636 12.3784 145.955 11.8722 146.271 11.5015C146.667 11.0733 146.915 10.9232 147.227 10.7224C147.562 10.5272 147.808 10.4288 148.228 10.3032C148.651 10.1717 149.224 10.0832 149.703 10.0933C150.183 10.1034 150.502 10.1193 151.002 10.2261C151.652 10.3934 151.673 10.4246 151.927 10.5346C152.096 10.608 152.301 10.7242 152.541 10.8832L150.977 13.0865L150.691 12.971C150.55 12.9128 150.355 12.8783 150.105 12.8676C149.774 12.8546 149.347 12.9511 148.989 13.1127C148.626 13.2958 148.47 13.4327 148.167 13.7929C147.946 14.0906 147.801 14.4371 147.732 14.8323L147.668 15.3206Z" fill="#0C0C0C"/>
<path d="M128.113 20.4771L131.853 10.0925H135.365L137.613 16.2355H139.158L139.787 18.1369H138.264L139.11 20.4771H135.874L135.014 18.1369H136.854L136.208 16.2355H134.326L133.609 14.2351L131.369 20.4771H128.113Z" fill="#0C0C0C"/>
<path d="M116.164 18.9925L117.541 16.9359C117.578 17.0531 117.634 17.1777 117.709 17.3097C117.821 17.5077 117.809 17.5191 117.956 17.6694C118.118 17.8312 118.334 17.9993 118.917 18.0426C119.5 18.086 119.786 18.0183 119.946 17.923C120.107 17.8277 120.238 17.7259 120.3 17.5562C120.361 17.3575 120.391 17.1174 120.192 16.8805C119.928 16.6007 119.279 16.4113 118.694 16.1157C118.108 15.82 118 15.7812 117.661 15.5658C117.322 15.3505 117.128 15.186 116.89 14.946C116.428 14.4612 116.26 14.0767 116.124 13.5429C116.032 13.0718 116.052 12.5433 116.124 12.146C116.227 11.6957 116.376 11.3119 116.619 10.9434C116.876 10.5658 117.227 10.2597 117.615 10.0708C117.931 9.90863 118.316 9.76078 118.917 9.71758C119.533 9.67813 120.099 9.75829 120.63 10.0017C120.803 10.073 120.948 10.1534 121.137 10.3022C121.272 10.4235 121.388 10.5441 121.486 10.6639L120.274 12.4455C120.165 12.3569 120.03 12.265 119.871 12.1697C119.463 11.9719 118.98 11.8929 118.601 12.1053C118.277 12.3251 118.247 12.4425 118.223 12.7611C118.223 13.1258 118.52 13.5988 119.121 13.865C119.662 14.1292 119.382 13.9897 120.169 14.3267C120.955 14.6637 121.342 14.8823 121.656 15.1319C121.97 15.3816 122.259 15.8117 122.354 16.3002C122.45 16.7887 122.43 16.6338 122.464 17.0962C122.455 17.543 122.414 18.0394 122.195 18.5642C122.097 18.7733 122.045 18.9319 121.793 19.2464C121.468 19.6466 121.337 19.7809 120.68 20.1533C120.285 20.3386 119.819 20.4389 119.341 20.477C118.69 20.4833 118.19 20.3767 117.709 20.1895C117.295 20.0289 117.23 19.9986 116.858 19.7294C116.614 19.549 116.383 19.3034 116.164 18.9925Z" fill="#0C0C0C"/>
<path d="M103.736 18.9925L105.113 16.9359C105.151 17.0531 105.207 17.1777 105.281 17.3097C105.393 17.5077 105.381 17.5191 105.528 17.6694C105.69 17.8312 105.907 17.9993 106.489 18.0426C107.072 18.086 107.358 18.0183 107.519 17.923C107.679 17.8277 107.81 17.7259 107.872 17.5562C107.933 17.3575 107.963 17.1174 107.764 16.8805C107.5 16.6007 106.851 16.4113 106.266 16.1157C105.681 15.82 105.572 15.7812 105.233 15.5658C104.895 15.3505 104.701 15.186 104.462 14.946C104 14.4612 103.833 14.0767 103.697 13.5429C103.605 13.0718 103.624 12.5433 103.697 12.146C103.799 11.6957 103.948 11.3119 104.192 10.9434C104.448 10.5658 104.799 10.2597 105.187 10.0708C105.504 9.90863 105.888 9.76078 106.489 9.71758C107.106 9.67813 107.671 9.75829 108.203 10.0017C108.375 10.073 108.52 10.1534 108.709 10.3022C108.844 10.4235 108.961 10.5441 109.058 10.6639L107.847 12.4455C107.737 12.3569 107.603 12.265 107.443 12.1697C107.036 11.9719 106.552 11.8929 106.174 12.1053C105.85 12.3251 105.819 12.4425 105.795 12.7611C105.795 13.1258 106.092 13.5988 106.693 13.865C107.234 14.1292 106.954 13.9897 107.741 14.3267C108.527 14.6637 108.914 14.8823 109.228 15.1319C109.542 15.3816 109.831 15.8117 109.927 16.3002C110.023 16.7887 110.002 16.6338 110.037 17.0962C110.027 17.543 109.986 18.0394 109.767 18.5642C109.67 18.7733 109.618 18.9319 109.365 19.2464C109.04 19.6466 108.91 19.7809 108.252 20.1533C107.857 20.3386 107.391 20.4389 106.913 20.477C106.262 20.4833 105.762 20.3767 105.281 20.1895C104.867 20.0289 104.802 19.9986 104.43 19.7294C104.186 19.549 103.955 19.3034 103.736 18.9925Z" fill="#0C0C0C"/>
<path d="M94.5967 10.0925H97.2328V13.8953L94.5967 15.2117V10.0925Z" fill="#0C0C0C"/>
<path d="M94.5967 15.2117L97.2328 18.1369V20.4771H94.5967V15.2117Z" fill="#0C0C0C"/>
<path d="M80.6631 10.0925V12.2595L86.1389 20.4771H88.5714V18.289L83.1149 10.0925H80.6631Z" fill="#0C0C0C"/>
<path d="M80.6631 14.7083V20.4772H83.4379V18.9313L80.6631 14.7083Z" fill="#0C0C0C"/>
<path d="M85.6582 10.0925H88.5718V12.4327H85.6582V10.0925Z" fill="#0C0C0C"/>
<path d="M71.2036 10.1539C71.5646 10.2273 71.6756 10.2708 71.9169 10.3695C72.1583 10.4682 72.4893 10.6788 72.6622 10.8264C72.8351 10.9739 72.9068 11.042 73.0701 11.2234C73.2334 11.4049 73.5421 11.8512 73.6831 12.1409C73.8241 12.4307 74.0025 12.9516 74.0462 13.2629C74.0845 13.5352 74.0881 13.5872 74.0884 13.7958L74.0884 13.8959C74.0884 14.1944 74.0232 14.7604 73.9274 15.0659C73.8317 15.3714 73.5828 15.9277 73.3497 16.2436C73.1165 16.5595 73 16.6424 72.8198 16.8209C72.6997 16.9399 72.5692 17.0418 72.4282 17.1265L74.6374 20.4771H71.5098L66.3525 12.6469V10.0935H70.5598C70.5598 10.0935 70.566 10.0932 70.5777 10.0929L70.5994 10.0926C70.6894 10.092 70.9229 10.0968 71.2036 10.1539ZM70.5598 12.1409H69.1372L71.0192 14.9824C71.1377 14.9396 71.2438 14.8802 71.3376 14.8044C71.4782 14.6907 71.5177 14.6547 71.6516 14.4711C71.7855 14.2874 71.9047 13.8724 71.9169 13.6034C71.9292 13.3345 71.8343 13.0082 71.6958 12.8026C71.5572 12.597 71.4717 12.5212 71.3376 12.408C71.214 12.3208 71.1611 12.2803 70.965 12.213C70.8342 12.1681 70.6991 12.1441 70.5598 12.1409Z" fill="#0C0C0C"/>
<path d="M66.3525 16.6746H68.9312V20.477H66.3525V16.6746Z" fill="#0C0C0C"/>
<path d="M60.3272 10.0925H52.4189V17.5706L54.332 20.4771H60.3272V18.1369H55.4713V16.2355H58.5236V13.8953H55.4713V12.4327H57.6911V11.7014H60.3272V10.0925Z" fill="#0C0C0C"/>
<path d="M35.8496 10.1067H38.6338L40.3106 14.7077L38.5012 19.5198L35.8496 12.4827V10.1067Z" fill="#0C0C0C"/>
<path d="M38.8496 20.4771L42.6968 10.1067L46.3943 10.0925L42.4877 20.4771H38.8496Z" fill="#0C0C0C"/>
<path fill-rule="evenodd" clip-rule="evenodd" d="M20.7861 0.708008V10.1488L17.9346 13.0057L17.9349 3.74372H4.03484V17.6723L13.2778 17.6722L10.2482 20.708H0.827148V0.708008H20.7861Z" fill="#0C0C0C"/>
<path d="M19.0916 20.7079C20.8594 20.7079 22.2926 19.2442 22.2926 17.4387C22.2926 15.6331 20.8594 14.1694 19.0916 14.1694C17.3237 14.1694 15.8906 15.6331 15.8906 17.4387C15.8906 19.2442 17.3237 20.7079 19.0916 20.7079Z" fill="#FF0064"/>
</g>
<defs>
<clipPath id="clip0_1_460">
<rect width="168.333" height="20" fill="white" transform="translate(0.667969 0.708008)"/>
</clipPath>
</defs>
</svg>
