<svg width="385" height="23" viewBox="0 0 385 23" fill="none" xmlns="http://www.w3.org/2000/svg">
<path d="M2.00586 19.5V5.20312H7.19141C9.17708 5.20312 10.7331 5.82812 11.8594 7.07812C12.9857 8.32161 13.5488 10.0827 13.5488 12.3613C13.5488 14.64 12.9857 16.401 11.8594 17.6445C10.7331 18.8815 9.17708 19.5 7.19141 19.5H2.00586ZM3.8125 6.80469V17.8984H7.19141C7.89453 17.8984 8.51628 17.7943 9.05664 17.5859C9.60352 17.3776 10.043 17.1042 10.375 16.7656C10.707 16.4206 10.9772 16.0039 11.1855 15.5156C11.4004 15.0273 11.5469 14.5293 11.625 14.0215C11.7096 13.5137 11.752 12.9603 11.752 12.3613C11.752 11.7624 11.7096 11.209 11.625 10.7012C11.5469 10.1934 11.4004 9.69531 11.1855 9.20703C10.9772 8.71224 10.707 8.29232 10.375 7.94727C10.043 7.60221 9.60352 7.32552 9.05664 7.11719C8.51628 6.90885 7.89453 6.80469 7.19141 6.80469H3.8125ZM19.5593 18.377C19.9499 18.377 20.308 18.3281 20.6335 18.2305C20.959 18.1328 21.226 18.0124 21.4343 17.8691C21.6491 17.7259 21.8347 17.5599 21.9909 17.3711C22.1537 17.1823 22.2741 17.0065 22.3523 16.8438C22.4369 16.6745 22.4987 16.5117 22.5378 16.3555H24.1394C23.8594 17.3776 23.3353 18.2044 22.5671 18.8359C21.8054 19.4674 20.8223 19.7832 19.6179 19.7832C18.0879 19.7832 16.8737 19.2917 15.9753 18.3086C15.0834 17.3255 14.6374 16.0234 14.6374 14.4023C14.6374 12.7161 15.0769 11.3978 15.9558 10.4473C16.8412 9.49674 18.0359 9.02148 19.5398 9.02148C21.1153 9.02148 22.3002 9.52604 23.0945 10.5352C23.8952 11.5443 24.2956 12.9733 24.2956 14.8223H16.239C16.239 15.4538 16.3562 16.0332 16.5905 16.5605C16.8314 17.0879 17.209 17.5241 17.7234 17.8691C18.2377 18.2077 18.8497 18.377 19.5593 18.377ZM19.5398 10.418C18.5892 10.418 17.8015 10.7109 17.1765 11.2969C16.5515 11.8763 16.239 12.5827 16.239 13.416H22.7038C22.7038 12.5762 22.4109 11.8665 21.8249 11.2871C21.239 10.7077 20.4773 10.418 19.5398 10.418ZM24.4077 9.30469H26.1459L28.9682 17.8984H28.9877L31.81 9.30469H33.5483L29.8862 19.5H28.0698L24.4077 9.30469ZM38.6115 18.377C39.0021 18.377 39.3602 18.3281 39.6857 18.2305C40.0112 18.1328 40.2782 18.0124 40.4865 17.8691C40.7013 17.7259 40.8869 17.5599 41.0431 17.3711C41.2059 17.1823 41.3263 17.0065 41.4045 16.8438C41.4891 16.6745 41.5509 16.5117 41.59 16.3555H43.1916C42.9116 17.3776 42.3875 18.2044 41.6193 18.8359C40.8576 19.4674 39.8745 19.7832 38.6701 19.7832C37.1401 19.7832 35.9259 19.2917 35.0275 18.3086C34.1356 17.3255 33.6896 16.0234 33.6896 14.4023C33.6896 12.7161 34.1291 11.3978 35.008 10.4473C35.8934 9.49674 37.088 9.02148 38.592 9.02148C40.1675 9.02148 41.3524 9.52604 42.1466 10.5352C42.9474 11.5443 43.3478 12.9733 43.3478 14.8223H35.2912C35.2912 15.4538 35.4084 16.0332 35.6427 16.5605C35.8836 17.0879 36.2612 17.5241 36.7755 17.8691C37.2899 18.2077 37.9018 18.377 38.6115 18.377ZM38.592 10.418C37.6414 10.418 36.8537 10.7109 36.2287 11.2969C35.6037 11.8763 35.2912 12.5827 35.2912 13.416H41.756C41.756 12.5762 41.463 11.8665 40.8771 11.2871C40.2912 10.7077 39.5295 10.418 38.592 10.418ZM44.7782 5.20312H46.3798V19.5H44.7782V5.20312ZM52.8395 19.7832C51.303 19.7832 50.0855 19.2917 49.1871 18.3086C48.2887 17.319 47.8395 16.0169 47.8395 14.4023C47.8395 12.7878 48.2887 11.4889 49.1871 10.5059C50.0855 9.51628 51.303 9.02148 52.8395 9.02148C54.3694 9.02148 55.5803 9.51628 56.4723 10.5059C57.3707 11.4954 57.8199 12.7943 57.8199 14.4023C57.8199 16.0104 57.3707 17.3092 56.4723 18.2988C55.5803 19.2884 54.3694 19.7832 52.8395 19.7832ZM52.8395 18.377C53.9267 18.377 54.76 18.0026 55.3395 17.2539C55.9254 16.5052 56.2184 15.5547 56.2184 14.4023C56.2184 13.25 55.9254 12.2995 55.3395 11.5508C54.76 10.7956 53.9267 10.418 52.8395 10.418C51.7392 10.418 50.8961 10.7956 50.3102 11.5508C49.7307 12.2995 49.441 13.25 49.441 14.4023C49.441 15.5547 49.7307 16.5052 50.3102 17.2539C50.8961 18.0026 51.7392 18.377 52.8395 18.377ZM64.0941 9.02148C64.7256 9.02148 65.318 9.14518 65.8714 9.39258C66.4248 9.63997 66.9066 9.99154 67.3167 10.4473C67.7334 10.903 68.0589 11.4727 68.2933 12.1562C68.5342 12.8333 68.6546 13.582 68.6546 14.4023C68.6546 15.2227 68.5342 15.9746 68.2933 16.6582C68.0589 17.3353 67.7334 17.9017 67.3167 18.3574C66.9066 18.8132 66.4248 19.1647 65.8714 19.4121C65.318 19.6595 64.7256 19.7832 64.0941 19.7832C62.6618 19.7832 61.5843 19.2493 60.8616 18.1816H60.8128V22.9375H59.221V9.30469H60.8128V10.5645H60.8616C61.6429 9.53581 62.7204 9.02148 64.0941 9.02148ZM63.8988 18.377C64.5693 18.377 65.1488 18.1816 65.637 17.791C66.1253 17.4004 66.4834 16.9121 66.7113 16.3262C66.9391 15.7337 67.053 15.0924 67.053 14.4023C67.053 13.7122 66.9391 13.071 66.7113 12.4785C66.4834 11.8861 66.1253 11.3945 65.637 11.0039C65.1488 10.6133 64.5693 10.418 63.8988 10.418C62.9547 10.418 62.2028 10.7793 61.6429 11.502C61.0895 12.2246 60.8128 13.1914 60.8128 14.4023C60.8128 15.6068 61.0895 16.5703 61.6429 17.293C62.1963 18.0156 62.9482 18.377 63.8988 18.377ZM74.4502 18.377C74.8409 18.377 75.1989 18.3281 75.5245 18.2305C75.85 18.1328 76.1169 18.0124 76.3252 17.8691C76.5401 17.7259 76.7256 17.5599 76.8819 17.3711C77.0446 17.1823 77.1651 17.0065 77.2432 16.8438C77.3278 16.6745 77.3897 16.5117 77.4287 16.3555H79.0303C78.7504 17.3776 78.2263 18.2044 77.458 18.8359C76.6963 19.4674 75.7133 19.7832 74.5088 19.7832C72.9789 19.7832 71.7647 19.2917 70.8662 18.3086C69.9743 17.3255 69.5284 16.0234 69.5284 14.4023C69.5284 12.7161 69.9678 11.3978 70.8467 10.4473C71.7321 9.49674 72.9268 9.02148 74.4307 9.02148C76.0062 9.02148 77.1911 9.52604 77.9854 10.5352C78.7862 11.5443 79.1866 12.9733 79.1866 14.8223H71.1299C71.1299 15.4538 71.2471 16.0332 71.4815 16.5605C71.7224 17.0879 72.1 17.5241 72.6143 17.8691C73.1286 18.2077 73.7406 18.377 74.4502 18.377ZM74.4307 10.418C73.4802 10.418 72.6924 10.7109 72.0674 11.2969C71.4424 11.8763 71.1299 12.5827 71.1299 13.416H77.5948C77.5948 12.5762 77.3018 11.8665 76.7159 11.2871C76.1299 10.7077 75.3682 10.418 74.4307 10.418ZM87.8142 5.20312H89.4158V19.5H87.8142V18.2402H87.7752C86.9939 19.2689 85.9262 19.7832 84.572 19.7832C83.934 19.7832 83.335 19.6595 82.7752 19.4121C82.2153 19.1647 81.727 18.8132 81.3103 18.3574C80.9002 17.9017 80.5746 17.3353 80.3337 16.6582C80.0929 15.9746 79.9724 15.2227 79.9724 14.4023C79.9724 13.582 80.0929 12.8333 80.3337 12.1562C80.5746 11.4727 80.9002 10.903 81.3103 10.4473C81.727 9.99154 82.2153 9.63997 82.7752 9.39258C83.335 9.14518 83.934 9.02148 84.572 9.02148C85.9848 9.02148 87.0525 9.55534 87.7752 10.623H87.8142V5.20312ZM84.738 18.377C85.6821 18.377 86.4308 18.0189 86.9841 17.3027C87.5375 16.5801 87.8142 15.6133 87.8142 14.4023C87.8142 13.1914 87.5375 12.2246 86.9841 11.502C86.4308 10.7793 85.6821 10.418 84.738 10.418C84.2302 10.418 83.7712 10.5319 83.3611 10.7598C82.9509 10.9811 82.6189 11.2806 82.365 11.6582C82.1111 12.0358 81.9158 12.4622 81.7791 12.9375C81.6423 13.4062 81.574 13.8945 81.574 14.4023C81.574 15.0924 81.6879 15.7337 81.9158 16.3262C82.1436 16.9121 82.5017 17.4004 82.99 17.791C83.4848 18.1816 84.0675 18.377 84.738 18.377ZM100.011 9.02148C100.649 9.02148 101.248 9.14518 101.808 9.39258C102.368 9.63997 102.853 9.99154 103.263 10.4473C103.68 10.903 104.008 11.4727 104.249 12.1562C104.49 12.8333 104.611 13.582 104.611 14.4023C104.611 15.2227 104.49 15.9746 104.249 16.6582C104.008 17.3353 103.68 17.9017 103.263 18.3574C102.853 18.8132 102.368 19.1647 101.808 19.4121C101.248 19.6595 100.649 19.7832 100.011 19.7832C98.6633 19.7832 97.5988 19.2689 96.8176 18.2402H96.7688V19.5H95.177V5.20312H96.7688V10.623H96.8176C97.5402 9.55534 98.6047 9.02148 100.011 9.02148ZM99.8547 18.377C100.525 18.377 101.105 18.1816 101.593 17.791C102.081 17.4004 102.439 16.9121 102.667 16.3262C102.895 15.7337 103.009 15.0924 103.009 14.4023C103.009 13.7122 102.895 13.071 102.667 12.4785C102.439 11.8861 102.081 11.3945 101.593 11.0039C101.105 10.6133 100.525 10.418 99.8547 10.418C98.9107 10.418 98.1587 10.7793 97.5988 11.502C97.0454 12.2246 96.7688 13.1914 96.7688 14.4023C96.7688 15.6068 97.0454 16.5703 97.5988 17.293C98.1522 18.0156 98.9042 18.377 99.8547 18.377ZM114.449 9.30469L110.094 20.3398C109.807 21.056 109.57 21.5508 109.381 21.8242C108.873 22.5599 108.163 22.931 107.252 22.9375C106.783 22.9375 106.331 22.8724 105.894 22.7422V21.541H106.129C106.611 21.5866 107.008 21.5703 107.32 21.4922C107.633 21.4206 107.916 21.2513 108.17 20.9844C108.326 20.8151 108.456 20.6198 108.56 20.3984C108.665 20.1836 108.733 19.9199 108.766 19.6074C108.805 19.2949 108.753 18.9792 108.609 18.6602L104.752 9.30469H106.549L109.674 17.6152H109.713L112.652 9.30469H114.449Z" fill="#0C0C0C"/>
<mask id="mask0_1_458" style="mask-type:alpha" maskUnits="userSpaceOnUse" x="124" y="5" width="100" height="15">
<path d="M126.676 19.7029V17.6739H130.691V19.7029H126.676ZM132.699 19.7029V17.6739H136.715V19.7029H132.699ZM130.691 17.6739V9.55797H132.699V17.6739H130.691ZM124.668 17.6739V5.5H126.676V17.6739H124.668ZM136.715 17.6739V5.5H138.723V17.6739H136.715Z" fill="url(#paint0_linear_1_458)"/>
<path d="M140.842 19.7029V7.52899H142.85V11.587H162.036V7.52899H164.044V19.7029H162.036V13.6159H142.85V19.7029H140.842ZM142.85 7.52899V5.5H162.036V7.52899H142.85Z" fill="url(#paint1_linear_1_458)"/>
<path d="M172.187 19.7029V17.6739H174.195V19.7029H172.187ZM170.179 17.6739V15.6449H172.187V17.6739H170.179ZM174.195 17.6739V15.6449H176.203V17.6739H174.195ZM168.171 15.6449V13.6159H170.179V15.6449H168.171ZM176.203 15.6449V13.6159H178.21V15.6449H176.203ZM166.163 13.6159V5.5H168.171V13.6159H166.163ZM178.21 13.6159V5.5H180.218V13.6159H178.21Z" fill="url(#paint2_linear_1_458)"/>
<path d="M182.338 19.7029V5.5H196.393V7.52899H184.346V11.587H192.377V13.6159H184.346V17.6739H196.393V19.7029H182.338Z" fill="url(#paint3_linear_1_458)"/>
<path d="M214.146 15.4421L222.668 6.92041M222.668 6.92041V15.1013M222.668 6.92041H214.487" stroke="#60F4DB" stroke-width="2" stroke-linecap="round" stroke-linejoin="round"/>
</mask>
<g mask="url(#mask0_1_458)">
<rect x="116.856" y="-18.645" width="116.464" height="40.4783" fill="#0C0C0C"/>
</g>
<defs>
<linearGradient id="paint0_linear_1_458" x1="222.668" y1="-7.28261" x2="121.124" y2="-7.42913" gradientUnits="userSpaceOnUse">
<stop stop-color="#67FFD3"/>
<stop offset="0.0001" stop-color="#B8FB8E"/>
<stop offset="0.286458" stop-color="#FBF754"/>
<stop offset="0.557292" stop-color="#E5376C"/>
<stop offset="0.770833" stop-color="#5E24FC"/>
<stop offset="1" stop-color="#60F4DB"/>
</linearGradient>
<linearGradient id="paint1_linear_1_458" x1="222.668" y1="-7.28261" x2="121.124" y2="-7.42913" gradientUnits="userSpaceOnUse">
<stop stop-color="#67FFD3"/>
<stop offset="0.0001" stop-color="#B8FB8E"/>
<stop offset="0.286458" stop-color="#FBF754"/>
<stop offset="0.557292" stop-color="#E5376C"/>
<stop offset="0.770833" stop-color="#5E24FC"/>
<stop offset="1" stop-color="#60F4DB"/>
</linearGradient>
<linearGradient id="paint2_linear_1_458" x1="222.668" y1="-7.28261" x2="121.124" y2="-7.42913" gradientUnits="userSpaceOnUse">
<stop stop-color="#67FFD3"/>
<stop offset="0.0001" stop-color="#B8FB8E"/>
<stop offset="0.286458" stop-color="#FBF754"/>
<stop offset="0.557292" stop-color="#E5376C"/>
<stop offset="0.770833" stop-color="#5E24FC"/>
<stop offset="1" stop-color="#60F4DB"/>
</linearGradient>
<linearGradient id="paint3_linear_1_458" x1="222.668" y1="-7.28261" x2="121.124" y2="-7.42913" gradientUnits="userSpaceOnUse">
<stop stop-color="#67FFD3"/>
<stop offset="0.0001" stop-color="#B8FB8E"/>
<stop offset="0.286458" stop-color="#FBF754"/>
<stop offset="0.557292" stop-color="#E5376C"/>
<stop offset="0.770833" stop-color="#5E24FC"/>
<stop offset="1" stop-color="#60F4DB"/>
</linearGradient>
</defs>
</svg>
