<svg width="166" height="20" viewBox="0 0 166 20" fill="none" xmlns="http://www.w3.org/2000/svg">
<g clip-path="url(#clip0_1_368)">
<path d="M165.786 9.53223H157.987V16.9067L159.874 19.7729H165.786V17.4651H160.997V15.5901H164.007V13.2823H160.997V11.84H163.186V11.1188H165.786V9.53223Z" fill="white"/>
<path d="M148.451 14.6382H152.045V15.1623C152.015 15.8275 151.943 16.3324 151.83 16.6769C151.661 17.1936 151.587 17.3902 151.382 17.7462C151.176 18.1022 150.747 18.637 150.424 18.8814C150.102 19.1259 149.928 19.2465 149.4 19.4834C149.035 19.644 148.625 19.738 148.168 19.7654L147.622 19.773V17.0739L147.906 16.9954C148.134 16.9213 148.333 16.8218 148.503 16.6969C148.694 16.5494 148.744 16.4838 148.862 16.3508C148.967 16.2309 149.046 16.097 149.099 15.949L149.154 15.7315H148.451V14.6382Z" fill="white"/>
<path d="M144.962 14.6879H142.39V14.2291C142.387 13.8516 142.413 13.5087 142.468 13.2002C142.55 12.7374 142.668 12.4089 142.821 12.1003C142.958 11.7864 143.273 11.2873 143.584 10.9217C143.975 10.4994 144.219 10.3514 144.527 10.1534C144.857 9.9609 145.1 9.86382 145.514 9.73997C145.931 9.61034 146.497 9.52304 146.969 9.533C147.442 9.54296 147.756 9.5586 148.25 9.66394C148.89 9.82889 148.911 9.85966 149.162 9.96818C149.329 10.0405 149.53 10.1551 149.767 10.3119L148.225 12.4847L147.943 12.3708C147.804 12.3134 147.611 12.2794 147.366 12.2688C147.039 12.256 146.618 12.3512 146.265 12.5105C145.907 12.6911 145.753 12.8261 145.454 13.1813C145.236 13.4749 145.093 13.8166 145.025 14.2063L144.962 14.6879Z" fill="white"/>
<path d="M125.679 19.7729L129.366 9.53223H132.83L135.047 15.5901H136.571L137.191 17.4651H135.689L136.523 19.7729H133.331L132.484 17.4651H134.299L133.661 15.5901H131.805L131.098 13.6174L128.89 19.7729H125.679Z" fill="white"/>
<path d="M113.895 18.3086L115.253 16.2806C115.29 16.3961 115.345 16.519 115.419 16.6491C115.529 16.8444 115.517 16.8557 115.662 17.0039C115.822 17.1634 116.035 17.3292 116.61 17.3719C117.185 17.4147 117.466 17.3479 117.625 17.254C117.783 17.16 117.913 17.0596 117.973 16.8922C118.034 16.6963 118.063 16.4596 117.867 16.2259C117.607 15.95 116.967 15.7632 116.39 15.4717C115.812 15.1801 115.705 15.1418 115.371 14.9295C115.037 14.7171 114.846 14.5549 114.611 14.3182C114.155 13.8401 113.99 13.461 113.856 12.9346C113.765 12.47 113.785 11.9488 113.856 11.557C113.957 11.113 114.104 10.7345 114.344 10.3711C114.597 9.99871 114.944 9.69688 115.326 9.51064C115.638 9.35067 116.017 9.20487 116.61 9.16227C117.218 9.12337 117.776 9.20242 118.299 9.44248C118.47 9.51276 118.612 9.59206 118.799 9.73878C118.932 9.85842 119.047 9.9773 119.143 10.0954L117.948 11.8524C117.84 11.765 117.708 11.6743 117.55 11.5804C117.149 11.3853 116.672 11.3074 116.299 11.5169C115.979 11.7337 115.949 11.8494 115.925 12.1636C115.925 12.5233 116.219 12.9897 116.811 13.2522C117.344 13.5128 117.068 13.3752 117.844 13.7075C118.62 14.0399 119.001 14.2554 119.311 14.5016C119.621 14.7478 119.905 15.1719 120 15.6537C120.094 16.1354 120.074 15.9826 120.108 16.4386C120.098 16.8792 120.058 17.3688 119.842 17.8863C119.746 18.0925 119.695 18.2488 119.446 18.559C119.125 18.9537 118.997 19.0861 118.348 19.4534C117.958 19.6361 117.499 19.735 117.028 19.7725C116.386 19.7788 115.893 19.6736 115.419 19.489C115.01 19.3307 114.946 19.3008 114.579 19.0353C114.339 18.8574 114.111 18.6152 113.895 18.3086Z" fill="white"/>
<path d="M101.64 18.3086L102.998 16.2806C103.035 16.3961 103.09 16.519 103.164 16.6491C103.274 16.8444 103.262 16.8557 103.407 17.0039C103.567 17.1634 103.78 17.3292 104.355 17.3719C104.93 17.4147 105.212 17.3479 105.37 17.254C105.528 17.16 105.658 17.0596 105.718 16.8922C105.779 16.6963 105.808 16.4596 105.612 16.2259C105.352 15.95 104.712 15.7632 104.135 15.4717C103.558 15.1801 103.45 15.1418 103.116 14.9295C102.782 14.7171 102.591 14.5549 102.356 14.3182C101.9 13.8401 101.735 13.461 101.601 12.9346C101.51 12.47 101.53 11.9488 101.601 11.557C101.702 11.113 101.849 10.7345 102.089 10.3711C102.342 9.99871 102.689 9.69688 103.071 9.51064C103.383 9.35067 103.762 9.20487 104.355 9.16227C104.963 9.12337 105.521 9.20242 106.045 9.44248C106.215 9.51276 106.357 9.59206 106.544 9.73878C106.677 9.85842 106.792 9.9773 106.888 10.0954L105.693 11.8524C105.585 11.765 105.453 11.6743 105.296 11.5804C104.894 11.3853 104.417 11.3074 104.044 11.5169C103.724 11.7337 103.694 11.8494 103.671 12.1636C103.671 12.5233 103.964 12.9897 104.556 13.2522C105.09 13.5128 104.813 13.3752 105.589 13.7075C106.365 14.0399 106.746 14.2554 107.056 14.5016C107.366 14.7478 107.65 15.1719 107.745 15.6537C107.839 16.1354 107.819 15.9826 107.853 16.4386C107.844 16.8792 107.803 17.3688 107.587 17.8863C107.491 18.0925 107.44 18.2488 107.191 18.559C106.87 18.9537 106.742 19.0861 106.093 19.4534C105.704 19.6361 105.244 19.735 104.773 19.7725C104.131 19.7788 103.638 19.6736 103.164 19.489C102.755 19.3307 102.691 19.3008 102.325 19.0353C102.084 18.8574 101.856 18.6152 101.64 18.3086Z" fill="white"/>
<path d="M92.627 9.53223H95.2265V13.2823L92.627 14.5804V9.53223Z" fill="white"/>
<path d="M92.627 14.5806L95.2265 17.4653V19.773H92.627V14.5806Z" fill="white"/>
<path d="M78.8867 9.53223V11.6692L84.2867 19.7729H86.6854V17.6151L81.3046 9.53223H78.8867Z" fill="white"/>
<path d="M78.8867 14.084V19.7729H81.6231V18.2485L78.8867 14.084Z" fill="white"/>
<path d="M83.8125 9.53223H86.6857V11.84H83.8125V9.53223Z" fill="white"/>
<path d="M69.5583 9.59276C69.9142 9.66516 70.0237 9.70806 70.2617 9.80537C70.4997 9.90268 70.8261 10.1104 70.9966 10.2559C71.1671 10.4014 71.2378 10.4685 71.3988 10.6475C71.5599 10.8264 71.8643 11.2665 72.0033 11.5522C72.1424 11.838 72.3184 12.3516 72.3615 12.6586C72.3992 12.9272 72.4027 12.9784 72.403 13.1842L72.403 13.2829C72.403 13.5772 72.3387 14.1354 72.2443 14.4367C72.1499 14.738 71.9045 15.2865 71.6746 15.598C71.4446 15.9095 71.3298 15.9913 71.1521 16.1673C71.0336 16.2847 70.9049 16.3852 70.7659 16.4687L72.9444 19.7729H69.8602L64.7744 12.0512V9.53314H68.9233C68.9233 9.53314 68.9294 9.53286 68.941 9.53262L68.9624 9.53227C69.0511 9.53167 69.2814 9.53645 69.5583 9.59276ZM68.9233 11.5522H67.5204L69.3764 14.3543C69.4932 14.3121 69.5979 14.2536 69.6904 14.1788C69.829 14.0667 69.8679 14.0312 70 13.8501C70.1321 13.669 70.2496 13.2597 70.2617 12.9945C70.2737 12.7292 70.1802 12.4075 70.0436 12.2047C69.9069 12.002 69.8226 11.9272 69.6904 11.8156C69.5685 11.7296 69.5164 11.6897 69.3229 11.6233C69.1939 11.579 69.0608 11.5553 68.9233 11.5522Z" fill="white"/>
<path d="M64.7744 16.0229H67.3173V19.7727H64.7744V16.0229Z" fill="white"/>
<path d="M58.8328 9.53223H51.0342V16.9067L52.9207 19.7729H58.8328V17.4651H54.0442V15.5901H57.0542V13.2823H54.0442V11.84H56.2333V11.1188H58.8328V9.53223Z" fill="white"/>
<path d="M34.6943 9.54639H37.4399L39.0935 14.0836L37.3092 18.8291L34.6943 11.8895V9.54639Z" fill="white"/>
<path d="M37.6523 19.7729L41.4462 9.54619L45.0924 9.53223L41.24 19.7729H37.6523Z" fill="white"/>
<path fill-rule="evenodd" clip-rule="evenodd" d="M19.8396 0.277344V9.58725L17.0276 12.4046L17.0278 3.27098H3.32046V17.0065L12.4353 17.0064L9.44766 20.0001H0.157227V0.277344H19.8396Z" fill="white"/>
<path d="M18.1683 20.0001C19.9117 20.0001 21.3249 18.5567 21.3249 16.7762C21.3249 14.9956 19.9117 13.5522 18.1683 13.5522C16.425 13.5522 15.0117 14.9956 15.0117 16.7762C15.0117 18.5567 16.425 20.0001 18.1683 20.0001Z" fill="#FF0064"/>
</g>
<defs>
<clipPath id="clip0_1_368">
<rect width="166" height="19.7228" fill="white" transform="translate(0 0.277344)"/>
</clipPath>
</defs>
</svg>
